<svg xmlns="http://www.w3.org/2000/svg" viewBox="0 0 23.61 20"><defs><style>.cls-1{fill:#6b6b6b;}</style></defs><title>Asset 1</title><g id="Layer_2" data-name="Layer 2"><g id="Layer_1-2" data-name="Layer 1"><path class="cls-1" d="M6.54,20a1.75,1.75,0,1,1,1.74-1.75A1.75,1.75,0,0,1,6.54,20Zm0-2.44a.7.7,0,1,0,.69.69A.69.69,0,0,0,6.54,17.56Z"/><path class="cls-1" d="M17.59,20a1.75,1.75,0,1,1,1.74-1.75A1.75,1.75,0,0,1,17.59,20Zm0-2.44a.7.7,0,1,0,.69.69A.69.69,0,0,0,17.59,17.56Z"/><path class="cls-1" d="M23.08,0H19.41a.52.52,0,0,0-.52.52v2.1H.52a.51.51,0,0,0-.4.2A.52.52,0,0,0,0,3.25l2,10a.52.52,0,0,0,.51.42H18.89v1.58H4.2a.52.52,0,1,0,0,1H19.41a.52.52,0,0,0,.53-.52V1.05h3.14a.53.53,0,0,0,.53-.53A.52.52,0,0,0,23.08,0ZM3,12.59,1.17,3.67H18.89v8.92Z"/></g></g></svg>