<svg xmlns="http://www.w3.org/2000/svg" viewBox="0 0 40.6 40"><defs><style>.cls-1{fill:#6b6b6b;}</style></defs><title>Asset 14</title><g id="Layer_2" data-name="Layer 2"><g id="Layer_1-2" data-name="Layer 1"><path class="cls-1" d="M8.29,10.3,7.4,9.48a5.12,5.12,0,0,1,.19-7.84c2.1-1.75,5.22-2.63,7.72.13,1.63,1.79,3,3.8,4.48,5.71.2.26.35.55.59.9.68-1,1.24-2,1.95-2.92A34.49,34.49,0,0,1,26,1.31c2.3-2,5.82-1.5,7.88,1a5.11,5.11,0,0,1-.82,7.43l-.6.54c1.64,0,3,0,4.45,0A3.71,3.71,0,0,1,40.59,14c0,1.94,0,3.89,0,5.83a4,4,0,0,1-1.13,2.69,2,2,0,0,0-.54,1.22c0,4,0,8.08,0,12.11,0,2.73-1.44,4.17-4.15,4.17H6.16c-2.64,0-4-1.4-4.05-4q0-6.06,0-12.12a1.23,1.23,0,0,0-.59-1.2,3.41,3.41,0,0,1-1.51-3c0-1.88,0-3.76,0-5.64A3.6,3.6,0,0,1,3.83,10.3C5.23,10.29,6.64,10.3,8.29,10.3ZM21.48,37.45a3,3,0,0,0,.48.07c4.37,0,8.74,0,13.11,0,.73,0,.84-.34.84-.95,0-4.22,0-8.43,0-12.64a4,4,0,0,0-.08-.56H21.48ZM5,23.36a4.38,4.38,0,0,0-.07.46c0,4.28,0,8.56,0,12.84,0,.79.42.87,1,.87H18.37a5.35,5.35,0,0,0,.55-.05V23.36ZM2.84,12.94c0,2.5,0,4.94,0,7.39a.9.9,0,0,0,.66.56q7.47,0,15,0a.88.88,0,0,0,.63-.55c0-2.45,0-4.89,0-7.4Zm18.58,0c0,2.28,0,4.51,0,6.73,0,1,.2,1.27,1.07,1.26,4.38-.05,8.75,0,13.13,0,2.42,0,2.13.44,2.15-2.47,0-1.81,0-3.63,0-5.49ZM17.68,9.32c-1.63-1.83-3-3.5-4.51-5-1.08-1.08-3.12-.6-4.18.8a2.45,2.45,0,0,0,.84,3.62,3,3,0,0,0,1.46.57C13.28,9.36,15.27,9.32,17.68,9.32Zm6-.21.27.35a41.78,41.78,0,0,0,5.13-.05A6.2,6.2,0,0,0,32,8.1a2.13,2.13,0,0,0,0-3.16c-.93-1-2.85-1.66-3.57-1C26.76,5.62,25.23,7.39,23.65,9.11Z"/></g></g></svg>