<svg xmlns="http://www.w3.org/2000/svg" viewBox="0 0 15.68 20"><defs><style>.cls-1{fill:#ffffff;}</style></defs><title>Asset 21</title><g id="Layer_2" data-name="Layer 2"><g id="Layer_1-2" data-name="Layer 1"><path class="cls-1" d="M14.05,6.65V6A5.95,5.95,0,1,0,2.16,6v.57A2.48,2.48,0,0,0,0,9v8.54A2.5,2.5,0,0,0,2.49,20h10.7a2.5,2.5,0,0,0,2.49-2.49V9A2.48,2.48,0,0,0,14.05,6.65ZM3.24,6A4.87,4.87,0,1,1,13,6v.54H10.81V6a2.7,2.7,0,1,0-5.4,0v.54H3.24Zm6.49.54H6.49V6A1.62,1.62,0,1,1,9.73,6Zm4.86,11a1.41,1.41,0,0,1-1.4,1.41H2.49a1.41,1.41,0,0,1-1.41-1.41V9a1.41,1.41,0,0,1,1.41-1.4h10.7A1.4,1.4,0,0,1,14.59,9Z"/></g></g></svg>
