<svg xmlns="http://www.w3.org/2000/svg" viewBox="0 0 164.45 173.24"><defs><style>.cls-1,.cls-3{fill:#80c342;}.cls-2{fill:#fff;}.cls-3{font-size:16px;font-family:MyriadPro-Semibold, Myriad Pro;font-weight:700;}.cls-4{letter-spacing:0.02em;}.cls-5{letter-spacing:0em;}</style></defs><title>Asset 13</title><g id="Layer_2" data-name="Layer 2"><g id="Layer_1-2" data-name="Layer 1"><path class="cls-1" d="M.52,105.3a3.69,3.69,0,0,0,3.2,1.83H46.06a3.72,3.72,0,0,0,2.78-6.19L40,89.08h84.54l-9.06,12.1a3.72,3.72,0,0,0,3,5.95h42.32a3.72,3.72,0,0,0,3.25-5.52l-9-16.25,9-16.26a3.71,3.71,0,0,0-3.25-5.51H135.64V49.25a3.72,3.72,0,0,0-3.72-3.72H116.31a3.72,3.72,0,0,0,0,7.44H128.2V81.64h-92V53h11.9a3.72,3.72,0,0,0,0-7.44H32.52a3.72,3.72,0,0,0-3.71,3.72V63.59H3.72A3.72,3.72,0,0,0,.46,69.1l9,16.26-9,16.25A3.74,3.74,0,0,0,.52,105.3ZM154.42,71l-6.94,12.54a3.72,3.72,0,0,0,0,3.6l6.94,12.53H125.83l9.1-12.16a3.71,3.71,0,0,0,.71-2.17V71ZM17,83.56,10,71H28.81V85.36a3.64,3.64,0,0,0,.71,2.17l9.09,12.16H10L17,87.16A3.72,3.72,0,0,0,17,83.56Z"/><path class="cls-1" d="M61.45,45.76,57.81,66.93a3.72,3.72,0,0,0,5.4,3.92l19-10,19,10a3.64,3.64,0,0,0,1.73.43,3.72,3.72,0,0,0,3.66-4.35L103,45.76l15.38-15a3.73,3.73,0,0,0-2.06-6.35L95.06,21.34,85.56,2.07a3.72,3.72,0,0,0-6.67,0L69.38,21.34,48.12,24.42a3.73,3.73,0,0,0-2.06,6.35ZM72.39,28.41a3.71,3.71,0,0,0,2.8-2l7-14.26,7,14.26a3.69,3.69,0,0,0,2.8,2L107.8,30.7,96.41,41.8a3.7,3.7,0,0,0-1.07,3.29L98,60.76,84,53.36a3.77,3.77,0,0,0-3.46,0l-14.07,7.4,2.69-15.67A3.75,3.75,0,0,0,68,41.8L56.65,30.7Z"/><path class="cls-1" d="M160.73,165.8H3.72a3.72,3.72,0,0,0,0,7.44h157a3.72,3.72,0,0,0,0-7.44Z"/><path class="cls-1" d="M3.72,130.13h157a3.72,3.72,0,1,0,0-7.43H3.72a3.72,3.72,0,1,0,0,7.43Z"/><circle class="cls-1" cx="21.82" cy="147.97" r="7.44"/><circle class="cls-1" cx="52.02" cy="147.97" r="7.44"/><circle class="cls-1" cx="82.22" cy="147.97" r="7.44"/><circle class="cls-1" cx="112.42" cy="147.97" r="7.44"/><circle class="cls-1" cx="142.63" cy="147.97" r="7.44"/><path class="cls-1" d="M79.69,48.59a1.5,1.5,0,0,1-1.5-1.5V30.41c0-.65,0-1.29,0-1.91l-3,2.49a1.48,1.48,0,0,1-1,.34A1.51,1.51,0,0,1,73,30.78l-4.46-5.43a1.53,1.53,0,0,1-.33-1.11,1.51,1.51,0,0,1,.55-1l10.93-8.82a1.54,1.54,0,0,1,.94-.33h7.76a1.5,1.5,0,0,1,1.5,1.5V47.09a1.5,1.5,0,0,1-1.5,1.5Z"/><path class="cls-2" d="M88.43,15.58V47.09H79.69V30.41c0-2,0-3.88.13-5.56a18,18,0,0,1-2,2l-3.62,3L69.74,24.4l10.93-8.82h7.76m0-3H80.67a3,3,0,0,0-1.88.67L67.86,22.06a3,3,0,0,0-1.1,2,3,3,0,0,0,.66,2.21l4.47,5.43a3,3,0,0,0,2.32,1.1,3,3,0,0,0,1.89-.68l.59-.48V47.09a3,3,0,0,0,3,3h8.74a3,3,0,0,0,3-3V15.58a3,3,0,0,0-3-3Z"/><text class="cls-3" transform="translate(46.34 119.03)">PROSPE<tspan class="cls-4" x="54.8" y="0">C</tspan><tspan class="cls-5" x="64.53" y="0">T</tspan></text></g></g></svg>