<svg id="Layer_1" data-name="Layer 1" xmlns="http://www.w3.org/2000/svg" viewBox="0 0 43.57 43.6"><defs><style>.cls-1{fill:#80c342;}</style></defs><title>prospect-ico</title><path class="cls-1" d="M8.64,20.75a21.07,21.07,0,0,0,.21,2.5l-1.32-.76a1,1,0,1,0-1,1.7l2.88,1.67a19.24,19.24,0,0,0,.86,2.37l-1.44-.38a1,1,0,1,0-.51,1.9l3.53.94.27,0a1,1,0,0,0,.49-.14A1,1,0,0,0,13,29.24a18,18,0,0,1,2.86-21.7,1,1,0,0,0,0-1.39,1,1,0,0,0-1.39,0,20.15,20.15,0,0,0-2,2.35L12,6.94a1,1,0,0,0-1.21-.69,1,1,0,0,0-.69,1.2L11,10.77A22.05,22.05,0,0,0,10,13l-.8-1.37a1,1,0,1,0-1.7,1l1.7,3a20.57,20.57,0,0,0-.43,2.47L7.64,17a1,1,0,0,0-1.39,0,1,1,0,0,0,0,1.39Z" transform="translate(-5.96 -5.86)"/><path class="cls-1" d="M42.5,29.24a1,1,0,0,0,.85,1.48l.28,0,3.52-.94a1,1,0,1,0-.51-1.9l-1.43.38a21,21,0,0,0,.86-2.37L49,24.19a1,1,0,1,0-1-1.7l-1.32.76a19.18,19.18,0,0,0,.22-2.5l2.38-2.39A1,1,0,0,0,47.85,17l-1.11,1.11a18.76,18.76,0,0,0-.43-2.47l1.71-3a1,1,0,0,0-1.71-1L45.52,13a20.19,20.19,0,0,0-1.05-2.27l.89-3.32a1,1,0,0,0-1.9-.51L43,8.5a20.15,20.15,0,0,0-2-2.35,1,1,0,0,0-1.39,1.39A18,18,0,0,1,42.5,29.24Z" transform="translate(-5.96 -5.86)"/><path class="cls-1" d="M22.19,21.66l-1,5.68a1,1,0,0,0,.4,1,1,1,0,0,0,1,.08l5.11-2.68,5.1,2.68a.92.92,0,0,0,.46.11,1,1,0,0,0,.58-.19,1,1,0,0,0,.39-1l-1-5.68,4.12-4a1,1,0,0,0,.25-1,1,1,0,0,0-.79-.67l-5.71-.83L28.63,10a1,1,0,0,0-1.77,0l-2.55,5.16-5.7.83a1,1,0,0,0-.8.67,1,1,0,0,0,.25,1ZM25.11,17a1,1,0,0,0,.74-.54l1.9-3.84,1.89,3.84a1,1,0,0,0,.75.54l4.24.62-3.07,3a1,1,0,0,0-.28.87L32,25.71l-3.79-2a1,1,0,0,0-.92,0l-3.8,2,.73-4.23a1,1,0,0,0-.28-.87l-3.07-3Z" transform="translate(-5.96 -5.86)"/><path class="cls-1" d="M49.39,38.4a1,1,0,0,0-.84-.48H41.9v-3.8a1,1,0,0,0-1-1H14.58a1,1,0,0,0-1,1v3.8H7a1,1,0,0,0-.86,1.46l2.38,4.31L6.09,48a1,1,0,0,0,0,1,1,1,0,0,0,.85.49H18.17a1,1,0,0,0,1-1,.94.94,0,0,0-.25-.65l-2.35-3.15H39l-2.41,3.21a1,1,0,0,0-.09,1,1,1,0,0,0,.88.55H48.55a1,1,0,0,0,.84-.49,1,1,0,0,0,0-1L47,43.69l2.38-4.31A1,1,0,0,0,49.39,38.4ZM15.56,35.11H39.93V42.7H15.56ZM8.62,47.49l1.84-3.32a1,1,0,0,0,0-1L8.62,39.89h5v3.8a1,1,0,0,0,.19.57l2.41,3.23ZM45,44.17l1.84,3.32H39.3s2.41-3.22,2.41-3.23a1,1,0,0,0,.19-.57v-3.8h5L45,43.21A1,1,0,0,0,45,44.17Z" transform="translate(-5.96 -5.86)"/><path class="cls-1" d="M34,37.92H21.53a1,1,0,0,0,0,2H34a1,1,0,1,0,0-2Z" transform="translate(-5.96 -5.86)"/></svg>