<svg xmlns="http://www.w3.org/2000/svg" viewBox="0 0 16 20"><defs><style>.cls-1{fill:#ffffff;}</style></defs><title>Asset 30</title><g id="Layer_2" data-name="Layer 2"><g id="Layer_1-2" data-name="Layer 1"><path class="cls-1" d="M15.84,4.55,10.51.1a.48.48,0,0,0-.29-.1h-8a.44.44,0,0,0-.44.44V1.78H.44A.44.44,0,0,0,0,2.22V19.56A.44.44,0,0,0,.44,20H13.78a.44.44,0,0,0,.44-.44V18.22h1.34a.44.44,0,0,0,.44-.44V4.89A.44.44,0,0,0,15.84,4.55Zm-1,.34H10.22V1ZM13.33,19.11H.89V2.67h.89V17.78a.44.44,0,0,0,.44.44H13.33ZM2.67,17.33V.89H9.33V5.33a.45.45,0,0,0,.45.45h5.33V17.33Z"/><rect class="cls-1" x="4.22" y="5.77" width="6.67" height="0.89"/><rect class="cls-1" x="4.22" y="11.99" width="5.78" height="0.89"/><rect class="cls-1" x="4.22" y="8.88" width="7.56" height="0.89"/><rect class="cls-1" x="4.22" y="15.1" width="6.67" height="0.89"/></g></g></svg>
