<svg xmlns="http://www.w3.org/2000/svg" viewBox="0 0 270.92 50.65"><defs><style>.cls-1{fill:#80c342;}.cls-2{fill:#fff;}</style></defs><title>Asset 1</title><g id="Layer_2" data-name="Layer 2"><g id="Layer_1-2" data-name="Layer 1"><path class="cls-1" d="M256.56,43.47a7.18,7.18,0,1,1,7.18,7.18,7.19,7.19,0,0,1-7.18-7.18"/><path class="cls-2" d="M41.16,24q0,12.44-6.69,19.15T15.69,49.86H0V.21H16.78q11.67,0,18,6.11T41.16,24m-13.6.48q0-6.83-2.64-10.12c-1.76-2.2-4.42-3.3-8-3.3H13.1V38.86H16q6,0,8.75-3.55t2.79-10.85"/><rect class="cls-2" x="84.6" width="12.48" height="49.86"/><path class="cls-2" d="M138,31.26q0,9.09-4.77,14.17t-13.35,5.08q-8.23,0-13.11-5.19t-4.87-14.06q0-9.06,4.78-14.07t13.39-5a18.68,18.68,0,0,1,9.41,2.32,15.68,15.68,0,0,1,6.31,6.66A21.83,21.83,0,0,1,138,31.26m-23.42,0a16.77,16.77,0,0,0,1.24,7.27A4.3,4.3,0,0,0,120,41a4.2,4.2,0,0,0,4.11-2.5,17.5,17.5,0,0,0,1.19-7.27,16.49,16.49,0,0,0-1.21-7.16,4.75,4.75,0,0,0-8.27,0,16.1,16.1,0,0,0-1.24,7.17"/><rect class="cls-2" x="143" y="12.82" width="12.48" height="37.04"/><rect class="cls-2" x="143" width="12.48" height="8.35"/><path class="cls-2" d="M180.77,40.41a18.15,18.15,0,0,0,6-1.27v9.31A24.78,24.78,0,0,1,182,50a26.23,26.23,0,0,1-5.34.47q-6.3,0-9.07-3.15t-2.78-9.69V22.4h-4.37V12.83h4.37V3.37l12.58-2.19V12.83h8V22.4h-8V36.82q0,3.59,3.38,3.59"/><path class="cls-2" d="M209.66,40.41a18.2,18.2,0,0,0,6-1.27v9.31A24.57,24.57,0,0,1,210.89,50a26.23,26.23,0,0,1-5.34.47q-6.3,0-9.07-3.15t-2.78-9.69V22.4h-4.37V12.83h4.37V3.23l12.58-2V12.83h8V22.4h-8V36.82q0,3.59,3.38,3.59"/><path class="cls-2" d="M249.05,16.54q-4.45-4.36-12.62-4.37-8.6,0-13.22,5t-4.63,14.4q0,9.07,5,14t14,4.92a40.38,40.38,0,0,0,7.47-.59,21.86,21.86,0,0,0,6-2.1l-1.92-8.35a24.6,24.6,0,0,1-10.08,2,8.53,8.53,0,0,1-5.7-1.77,6.44,6.44,0,0,1-2.22-4.87H253.5V29.1q0-8.21-4.45-12.56m-17.6,10.21a6.75,6.75,0,0,1,1.74-4.46,5.11,5.11,0,0,1,3.68-1.42,4.85,4.85,0,0,1,3.82,1.6,6.42,6.42,0,0,1,1.48,4.28Z"/><path class="cls-2" d="M75.33,16.54q-4.45-4.36-12.63-4.37-8.58,0-13.21,5t-4.63,14.4q0,9.07,5,14t14,4.92a40.23,40.23,0,0,0,7.47-.59,21.86,21.86,0,0,0,6-2.1l-1.92-8.35a26.94,26.94,0,0,1-4,1.32,27.13,27.13,0,0,1-6.05.64,8.52,8.52,0,0,1-5.69-1.77,6.37,6.37,0,0,1-2.22-4.87H79.78V29.1q0-8.21-4.45-12.56M57.72,26.75a6.75,6.75,0,0,1,1.74-4.46,5.12,5.12,0,0,1,3.69-1.42A4.82,4.82,0,0,1,67,22.47a6.48,6.48,0,0,1,1.49,4.28Z"/></g></g></svg>