<svg xmlns="http://www.w3.org/2000/svg" viewBox="0 0 14.68 20"><defs><style>.cls-1{fill:#6b6b6b;}</style></defs><title>Asset 17</title><g id="Layer_2" data-name="Layer 2"><g id="Layer_1-2" data-name="Layer 1"><path class="cls-1" d="M7.45,11.81,6.07,11H4.49l-.8-1.37L2.31,8.89V7.31l-.8-1.37.78-1.38V3l1.37-.8L4.43.81H6L7.38,0,8.75.78h1.59l.8,1.37,1.37.78V4.51l.8,1.36-.79,1.38V8.83l-1.36.8L10.39,11H8.81ZM6.32,10.09l1.12.64,1.11-.66h1.3l.64-1.13,1.11-.65V7l.64-1.12-.65-1.12V3.47l-1.12-.64L9.8,1.72H8.51L7.39,1.09l-1.12.65H5L4.34,2.87l-1.12.65V4.81L2.59,5.93l.65,1.12V8.34L4.37,9,5,10.09Z"/><path class="cls-1" d="M7.41,9.67A3.83,3.83,0,0,1,6,9.4a3.76,3.76,0,1,1,4.9-2.1,3.71,3.71,0,0,1-2,2.06A3.61,3.61,0,0,1,7.41,9.67Zm0-6.59a2.87,2.87,0,0,0-1.11.23A2.83,2.83,0,0,0,4.79,4.86,2.82,2.82,0,1,0,10,7h0A2.8,2.8,0,0,0,8.46,3.29,2.73,2.73,0,0,0,7.41,3.08Z"/><path class="cls-1" d="M4.46,20,2.32,18.28,0,18.65,2.48,11l4.44,1.43ZM2.58,17.29,4,18.41,5.73,13l-2.64-.85L1.36,17.48Z"/><path class="cls-1" d="M10.22,20,7.76,12.38,12.2,11l2.48,7.7-2.32-.37ZM9,13l1.75,5.43,1.4-1.12,1.21.19-1.72-5.35Z"/></g></g></svg>