<svg xmlns="http://www.w3.org/2000/svg" viewBox="0 0 13.07 17.52"><defs><style>.cls-1{fill:#fff;}</style></defs><title>Asset 11</title><g id="Layer_2" data-name="Layer 2"><g id="Layer_1-2" data-name="Layer 1"><path class="cls-1" d="M8.17,2.39a4.66,4.66,0,0,0-3.81,1.7A7.21,7.21,0,0,0,3,8.79,7.31,7.31,0,0,0,4.3,13.54a4.78,4.78,0,0,0,3.87,1.61,10.51,10.51,0,0,0,2.12-.22c.69-.14,1.4-.33,2.14-.55v2.39a13.21,13.21,0,0,1-4.6.75A7.37,7.37,0,0,1,2,15.26,9.45,9.45,0,0,1,0,8.77,10.47,10.47,0,0,1,1,4.12,7,7,0,0,1,3.83,1.06,8.65,8.65,0,0,1,8.2,0a10.78,10.78,0,0,1,4.87,1.1l-1,2.32a14.36,14.36,0,0,0-1.84-.72A6.61,6.61,0,0,0,8.17,2.39Z"/></g></g></svg>