<svg xmlns="http://www.w3.org/2000/svg" viewBox="0 0 22.07 20.69"><defs><style>.cls-1{fill:#ffffff;}</style></defs><title>Asset 1</title><g id="Layer_2" data-name="Layer 2"><g id="Layer_1-2" data-name="Layer 1"><path class="cls-1" d="M17.73,19.2c0-.44,0-.87,0-1.3s.17-.6.59-.58a10.27,10.27,0,0,0,1.11,0,1.83,1.83,0,0,0,1.84-1.85q0-3.76,0-7.55a1.8,1.8,0,0,0-1.88-1.86q-4.56,0-9.12,0A1.79,1.79,0,0,0,8.38,7.9q0,3.76,0,7.55a1.81,1.81,0,0,0,1.94,1.87c1.09,0,2.18,0,3.28,0,.21,0,.42.24.63.37-.21.13-.42.38-.63.38-1.14,0-2.28,0-3.41,0a2.57,2.57,0,0,1-2.59-2.6q0-3.81,0-7.62a2.58,2.58,0,0,1,2.69-2.63h9.06A2.63,2.63,0,0,1,22.06,8c0,2.39,0,4.78,0,7.16a2.68,2.68,0,0,1-2.92,2.95h-.63c0,.67,0,1.32,0,2a2.3,2.3,0,0,1-.25.62,1.9,1.9,0,0,1-.61-.28c-.77-.74-1.54-1.49-2.27-2.28-.14-.15-.09-.47-.14-.71.23,0,.53,0,.67.17.57.54,1.1,1.13,1.64,1.7Z"/><path class="cls-1" d="M4.27,15.37,5.83,13.7c.21-.22.47-.51.75-.17.09.12,0,.54-.18.7-.73.78-1.49,1.53-2.27,2.28-.13.13-.45.29-.53.23a.86.86,0,0,1-.29-.59c0-.63,0-1.26,0-1.95l-.74,0A2.6,2.6,0,0,1,0,11.64Q0,7.08,0,2.52A2.55,2.55,0,0,1,2.58,0Q9.47,0,16.36,0a2.51,2.51,0,0,1,2.48,2.12A8.61,8.61,0,0,1,18.89,4c0,.15-.25.28-.38.43-.13-.15-.35-.29-.36-.44,0-.46,0-.92,0-1.38A1.82,1.82,0,0,0,16.29.8c-4.55,0-9.1,0-13.65,0A1.79,1.79,0,0,0,.81,2.66q0,4.43,0,8.86a1.83,1.83,0,0,0,1.88,1.86c1.38.06,1.38.06,1.4,1.48v.39Z"/><path class="cls-1" d="M14.79,9.85c-1.36,0-2.72,0-4.07,0-.25,0-.67-.21-.69-.36,0-.49.39-.41.7-.41h8.21c.3,0,.7-.05.65.39,0,.16-.43.37-.67.38C17.54,9.86,16.16,9.85,14.79,9.85Z"/><path class="cls-1" d="M14.81,11.86H10.75c-.31,0-.76.1-.72-.4,0-.14.45-.36.69-.37q4.09,0,8.19,0c.24,0,.66.22.68.38.07.45-.35.39-.65.39Z"/><path class="cls-1" d="M12.65,13.11c.68,0,1.36,0,2,0,.18,0,.35.23.52.35-.16.14-.33.39-.5.4-1.39,0-2.79,0-4.19,0-.17,0-.34-.24-.51-.37.18-.14.36-.37.55-.38C11.25,13.08,12,13.11,12.65,13.11Z"/></g></g></svg>
