<svg xmlns="http://www.w3.org/2000/svg" viewBox="0 0 45.75 45.75"><defs><style>.cls-1{fill:#35a74e;}.cls-2{fill:#80c342;}.cls-3{fill:none;stroke:#80c342;stroke-miterlimit:10;stroke-width:0.76px;}.cls-4{fill:#fff;}</style></defs><title>star-ico</title><g id="Layer_2" data-name="Layer 2"><g id="Layer_1-2" data-name="Layer 1"><circle class="cls-1" cx="22.88" cy="22.88" r="22.88"/><circle class="cls-2" cx="22.88" cy="22.88" r="20.19"/><circle class="cls-3" cx="22.88" cy="22.88" r="21.78"/><path class="cls-4" d="M25,12.75l1.6,4.91a1.79,1.79,0,0,0,1.72,1.25h5.16a1.82,1.82,0,0,1,1.07,3.28l-4.18,3a1.81,1.81,0,0,0-.66,2l1.6,4.91a1.81,1.81,0,0,1-2.79,2l-4.18-3a1.77,1.77,0,0,0-2.12,0l-4.18,3a1.81,1.81,0,0,1-2.79-2l1.6-4.91a1.81,1.81,0,0,0-.66-2l-4.17-3a1.81,1.81,0,0,1,1.06-3.28h5.16a1.79,1.79,0,0,0,1.72-1.25l1.6-4.91A1.81,1.81,0,0,1,25,12.75Z"/></g></g></svg>