<svg id="Layer_1" data-name="Layer 1" xmlns="http://www.w3.org/2000/svg" viewBox="0 0 40 40"><title>thumbs-up</title><path d="M34.25,23.3a6.58,6.58,0,0,0-6-6H24.64l1.61-4.73c.59-2.11-1.18-3.9-1.26-4a.88.88,0,0,0-.74-.27,1,1,0,0,0-.72.34L14.59,18.81l-.08.11a5,5,0,0,0-.83,1.38H7.25a1,1,0,0,0-1,1v11a1,1,0,0,0,1,1h7.92a5.09,5.09,0,0,0,3.08,1h9a6.08,6.08,0,0,0,4.72-2C34.81,29.18,34.25,23.44,34.25,23.3Zm-26-1h5v7a5.5,5.5,0,0,0,.37,2H8.25ZM30.48,31a4.14,4.14,0,0,1-3.23,1.32h-9a2.84,2.84,0,0,1-3-2.67,1.82,1.82,0,0,1,0-.33v-7A3.25,3.25,0,0,1,16,20.19l.06-.09,8.07-9.21A1.55,1.55,0,0,1,24.3,12l-2,6h0a1,1,0,0,0-.05.35,1,1,0,0,0,1,1h5a4.69,4.69,0,0,1,4,4.1C32.25,23.45,32.73,28.5,30.48,31Z"/></svg>