<svg xmlns="http://www.w3.org/2000/svg" viewBox="0 0 45.75 45.75"><defs><style>.cls-1{fill:#35a74e;}.cls-2{fill:#80c342;}.cls-3{fill:none;stroke:#80c342;stroke-miterlimit:10;stroke-width:0.76px;}.cls-4{fill:#fff;}</style></defs><title>Asset 4</title><g id="Layer_2" data-name="Layer 2"><g id="Layer_1-2" data-name="Layer 1"><circle class="cls-1" cx="22.88" cy="22.88" r="22.88"/><circle class="cls-2" cx="22.88" cy="22.88" r="20.19"/><circle class="cls-3" cx="22.88" cy="22.88" r="21.78"/><path class="cls-4" d="M24.37,15.27a5,5,0,0,0-4.08,1.82,7.72,7.72,0,0,0-1.49,5,7.76,7.76,0,0,0,1.43,5.07,5.07,5.07,0,0,0,4.14,1.72,10.5,10.5,0,0,0,2.26-.23c.73-.15,1.49-.35,2.28-.59v2.56a13.93,13.93,0,0,1-4.91.81A7.86,7.86,0,0,1,17.8,29c-1.45-1.61-2.17-3.93-2.17-6.93a11.09,11.09,0,0,1,1-5,7.47,7.47,0,0,1,3-3.27,9.36,9.36,0,0,1,4.67-1.13,11.68,11.68,0,0,1,5.21,1.17l-1.08,2.48a16.46,16.46,0,0,0-2-.77A7.15,7.15,0,0,0,24.37,15.27Z"/></g></g></svg>