<svg xmlns="http://www.w3.org/2000/svg" viewBox="0 0 23 20"><defs><style>.cls-1{fill:#ffffff;}</style></defs><title>Asset 19</title><g id="Layer_2" data-name="Layer 2"><g id="Layer_1-2" data-name="Layer 1"><path class="cls-1" d="M22.72,5.55l-11-5.5a.49.49,0,0,0-.44,0l-11,5.5a.5.5,0,0,0,.44.9L3,5.31V19.5a.5.5,0,0,0,.5.5h16a.5.5,0,0,0,.5-.5V5.31l2.28,1.14a.54.54,0,0,0,.22,0,.5.5,0,0,0,.22-1ZM9.5,19V11h4v8ZM19,19H14.5V10.54A.53.53,0,0,0,14,10H9a.53.53,0,0,0-.5.54V19H4V4.81l7.5-3.75L19,4.81Z"/></g></g></svg>
