<svg xmlns="http://www.w3.org/2000/svg" viewBox="0 0 24.27 25.31"><defs><style>.cls-1,.cls-2,.cls-3{fill:none;stroke:#6b6b6b;}.cls-1,.cls-2{stroke-linecap:round;}.cls-1,.cls-3{stroke-miterlimit:10;}.cls-2{stroke-linejoin:round;}.cls-3{stroke-width:0.85px;}</style></defs><title>Asset 18</title><g id="Layer_2" data-name="Layer 2"><g id="Layer_1-2" data-name="Layer 1"><line class="cls-1" x1="6.31" y1="13.81" x2="18.25" y2="13.81"/><line class="cls-1" x1="6.31" y1="15.8" x2="18.25" y2="15.8"/><line class="cls-1" x1="6.31" y1="17.8" x2="18.25" y2="17.8"/><path class="cls-2" d="M23.52,8.9C22.14,2.35,15.78-.74,9.61,1,4.11,2.48-.33,7.64.63,13.58a10.61,10.61,0,0,0,10.48,8.75,13.69,13.69,0,0,0,5.11-.9,5,5,0,0,1-1,3.38,2.47,2.47,0,0,0,1.59-1,9.82,9.82,0,0,0,2-2.73,4.55,4.55,0,0,0,.33-1.2A10.51,10.51,0,0,0,23.52,8.9Z"/><path class="cls-3" d="M12.27,3.84,13,6.07a.4.4,0,0,0,.38.28h2.37a.4.4,0,0,1,.23.73l-1.9,1.37a.38.38,0,0,0-.15.45l.73,2.22a.4.4,0,0,1-.62.45l-1.93-1.38a.41.41,0,0,0-.47,0L9.73,11.57a.4.4,0,0,1-.62-.45L9.84,8.9a.38.38,0,0,0-.15-.45L7.79,7.08A.4.4,0,0,1,8,6.35h2.37a.4.4,0,0,0,.38-.28l.74-2.23A.4.4,0,0,1,12.27,3.84Z"/></g></g></svg>